<svg width="33" height="33" viewBox="0 0 33 33" fill="none" xmlns="http://www.w3.org/2000/svg">
<g clip-path="url(#clip0_1210_2976)">
<path d="M30.5962 -0.00012207H2.92249C1.59684 -0.00012207 0.524902 1.04644 0.524902 2.34038V30.1283C0.524902 31.4222 1.59684 32.4751 2.92249 32.4751H30.5962C31.9219 32.4751 33.0001 31.4222 33.0001 30.1346V2.34038C33.0001 1.04644 31.9219 -0.00012207 30.5962 -0.00012207ZM10.1596 27.6736H5.3391V12.1718H10.1596V27.6736ZM7.74938 10.0596C6.20173 10.0596 4.95219 8.81006 4.95219 7.26875C4.95219 5.72745 6.20173 4.47791 7.74938 4.47791C9.29068 4.47791 10.5402 5.72745 10.5402 7.26875C10.5402 8.80371 9.29068 10.0596 7.74938 10.0596ZM28.1986 27.6736H23.3844V20.1383C23.3844 18.3433 23.3527 16.0282 20.879 16.0282C18.3736 16.0282 17.993 17.9881 17.993 20.0115V27.6736H13.1852V12.1718H17.8027V14.2903H17.8662C18.5068 13.0724 20.0798 11.7848 22.4203 11.7848C27.298 11.7848 28.1986 14.9943 28.1986 19.1679V27.6736Z" fill="black"/>
</g>
<defs>
<clipPath id="clip0_1210_2976">
<rect width="32.4752" height="32.4752" fill="white" transform="translate(0.524902 -0.00012207)"/>
</clipPath>
</defs>
</svg>
