<svg width="33" height="27" viewBox="0 0 33 27" fill="none" xmlns="http://www.w3.org/2000/svg">
<path d="M10.7247 26.4303C22.9765 26.4303 29.6796 16.2774 29.6796 7.47543C29.6796 7.19001 29.6732 6.89824 29.6605 6.61281C30.9645 5.66981 32.0898 4.50178 32.9835 3.16358C31.7691 3.70389 30.4798 4.05677 29.1595 4.21015C30.5496 3.37685 31.5905 2.06778 32.0892 0.525605C30.7814 1.30067 29.3512 1.84741 27.8598 2.14239C26.855 1.0747 25.5264 0.367761 24.0795 0.130874C22.6326 -0.106013 21.1479 0.140345 19.8551 0.831859C18.5622 1.52337 17.5332 2.62153 16.927 3.95654C16.3209 5.29155 16.1714 6.78906 16.5017 8.21755C13.8536 8.08466 11.2629 7.39674 8.89771 6.1984C6.5325 5.00005 4.44551 3.31803 2.77205 1.26137C1.92151 2.7278 1.66125 4.46306 2.04415 6.11449C2.42705 7.76592 3.42439 9.2096 4.83347 10.1521C3.77562 10.1185 2.74094 9.83371 1.81492 9.3212V9.40365C1.81397 10.9426 2.34599 12.4343 3.32053 13.6253C4.29508 14.8163 5.65201 15.6331 7.16065 15.9368C6.18072 16.2049 5.15224 16.2439 4.15479 16.0509C4.5805 17.3744 5.40878 18.5319 6.52403 19.362C7.63928 20.1921 8.98586 20.6533 10.3758 20.6812C8.01607 22.5348 5.10108 23.5402 2.10035 23.5355C1.56819 23.5346 1.03656 23.502 0.508301 23.4378C3.55672 25.3935 7.10285 26.4322 10.7247 26.4303Z" fill="black"/>
</svg>
