<svg width="72" height="82" viewBox="0 0 72 82" fill="none" xmlns="http://www.w3.org/2000/svg">
<g clip-path="url(#clip0_1210_2793)">
<path d="M48.3202 82H23.6804C22.6736 81.3978 22.3465 80.7871 22.5752 79.9479C22.7869 79.1791 23.4281 78.8011 24.5375 78.799C25.5935 78.799 26.6495 78.799 27.7396 78.799C28.289 75.8094 28.8234 72.9138 29.377 69.8986C28.9409 69.8986 28.6289 69.8986 28.3168 69.8986C22.0002 69.8986 15.6837 69.9029 9.36716 69.8922C8.62328 69.8922 7.86444 69.873 7.14194 69.7235C2.83258 68.8416 0.0109831 65.3267 0.00670791 60.8444C-0.00397998 49.7467 0.000295178 38.6489 0.00457033 27.5511C0.00457033 22.0247 3.76457 18.2664 9.28807 18.2578C10.0255 18.2578 10.7609 18.2578 11.5518 18.2578C11.5518 17.8371 11.5518 17.5211 11.5518 17.2051C11.5518 13.1499 11.5411 9.09474 11.556 5.03958C11.5646 2.60307 12.892 0.834948 15.1643 0.158021C15.2861 0.121719 15.3994 0.0533854 15.517 0C29.1718 0 42.8245 0 56.4793 0C59.6814 1.3026 60.4467 2.46 60.4467 6.00052C60.4467 9.78875 60.4467 13.577 60.4467 17.3652C60.4467 17.6449 60.4467 17.9268 60.4467 18.2578C61.3338 18.2578 62.1012 18.2557 62.8707 18.2578C68.1933 18.2813 71.9875 22.0674 71.9917 27.391C72.0003 38.5144 71.9982 49.6399 71.9853 60.7633C71.9853 61.5299 71.9212 62.3157 71.7459 63.061C70.7712 67.2251 67.3233 69.8794 62.8728 69.8901C56.4772 69.9071 50.0794 69.8943 43.6838 69.8943C43.3717 69.8943 43.0596 69.8943 42.6214 69.8943C43.1815 72.9309 43.7202 75.8479 44.2631 78.7947C45.5179 78.7947 46.6892 78.7712 47.8585 78.8011C48.9016 78.8268 49.5472 79.5848 49.4617 80.5778C49.3997 81.3188 48.8845 81.6733 48.3181 81.9936L48.3202 82ZM14.8009 11.5099V58.3011H57.1869V11.5099H14.8009ZM68.7277 61.6559H3.21521C3.31568 62.0872 3.37125 62.4268 3.47386 62.7556C4.23911 65.2199 6.34035 66.6912 9.13844 66.6933C27.0513 66.6976 44.9642 66.6955 62.8771 66.6933C63.1165 66.6933 63.3559 66.6848 63.5953 66.6656C66.3229 66.4648 68.3985 64.464 68.7277 61.6559ZM11.4898 58.3246V29.8489H3.24727V58.3246H11.4898ZM68.7426 58.3182V29.8424H60.4916V58.3182H68.7426ZM14.7752 8.17865H57.1869C57.2168 8.04839 57.2382 7.995 57.2382 7.94375C57.2425 7.08958 57.2489 6.23755 57.2467 5.38339C57.2446 3.71562 56.723 3.20312 55.0322 3.20312C42.3478 3.20312 29.6634 3.20312 16.9791 3.20312C16.7653 3.20312 16.5516 3.19458 16.3399 3.20953C15.487 3.27146 14.8436 3.80104 14.7923 4.65307C14.7239 5.81474 14.7752 6.98495 14.7752 8.17865ZM40.999 78.7627C40.4732 75.9055 39.9687 73.1295 39.4322 70.3598C39.398 70.1805 39.1073 69.9221 38.9341 69.9199C36.8585 69.8901 34.7829 69.9007 32.6411 69.9007C32.0917 72.8711 31.5509 75.7923 30.9994 78.7648H41.0012L40.999 78.7627ZM11.4919 26.5603V21.5165C6.56907 21.0552 3.29644 23.0817 3.31781 26.5603H11.4919ZM60.483 26.5539H68.7084C68.5844 24.2348 66.8573 22.1037 64.553 21.6638C63.2405 21.414 61.8703 21.4716 60.4852 21.3883V26.5539H60.483Z" fill="#FD6F00"/>
<path d="M16.7693 38.5015C16.7693 34.314 16.7672 30.1264 16.7693 25.9389C16.7715 23.2632 18.2549 21.7748 20.9141 21.7706C23.2056 21.7663 25.4971 21.762 27.7885 21.7706C30.1484 21.7812 31.7345 23.2867 31.7409 25.6527C31.7666 34.2414 31.7666 42.83 31.7409 51.4187C31.7345 53.7869 30.1655 55.2881 27.7949 55.303C25.4244 55.318 23.0517 55.3222 20.6811 55.303C18.3169 55.2838 16.78 53.7484 16.7736 51.3845C16.7586 47.0902 16.7693 42.7959 16.7693 38.5015ZM28.5559 38.6019C28.5559 34.4165 28.5495 30.2289 28.5623 26.0435C28.5645 25.3517 28.4319 24.9438 27.5962 24.9587C25.3602 24.9993 23.1201 24.9908 20.8842 24.963C20.1788 24.9545 19.9586 25.2385 19.9607 25.9154C19.9736 34.3418 19.9757 42.7681 19.9607 51.1923C19.9607 51.9034 20.245 52.1212 20.9141 52.1148C23.0709 52.0913 25.2299 52.1084 27.3867 52.1063C28.4875 52.1063 28.5538 52.038 28.5559 50.9233C28.5581 46.8169 28.5559 42.7105 28.5559 38.604V38.6019Z" fill="black"/>
<path d="M44.788 21.7705C46.9191 21.7705 49.0524 21.762 51.1836 21.7727C53.4922 21.7855 55.0612 23.3016 55.0911 25.6143C55.1274 28.307 55.1253 31.0019 55.0911 33.6968C55.0633 35.9774 53.5606 37.5256 51.2712 37.5491C46.9277 37.5961 42.5841 37.5982 38.2406 37.5491C35.8914 37.5235 34.4058 35.9112 34.3993 33.5452C34.3929 30.9571 34.3929 28.3711 34.3993 25.783C34.4058 23.3401 35.9555 21.7812 38.3902 21.7705C40.5214 21.762 42.6547 21.7705 44.7858 21.7705H44.788ZM37.5993 29.3406C38.3026 28.7661 38.8583 28.2814 39.4462 27.8372C40.8847 26.746 42.6846 26.7631 44.0997 27.8757C44.602 28.2707 45.1193 28.6594 45.5618 29.1164C46.1411 29.7143 46.6135 29.6395 47.1821 29.0993C48.4304 27.9077 49.8733 27.6878 51.4593 28.3561C51.5748 28.4053 51.6988 28.4309 51.8997 28.4928C51.8997 27.5041 51.904 26.5731 51.8997 25.6442C51.8954 25.1295 51.594 24.9672 51.1173 24.9694C46.8828 24.9758 42.6483 24.9758 38.4137 24.9694C37.8366 24.9694 37.5929 25.2192 37.6014 25.7894C37.6164 26.9083 37.6057 28.0273 37.6057 29.3406H37.5993ZM44.7174 34.3631C46.793 34.3631 48.8707 34.3823 50.9463 34.3439C51.2541 34.3374 51.8014 34.0855 51.8163 33.9104C51.8676 33.3039 52.2331 32.5907 51.5042 32.0953C50.4369 31.3706 49.5704 31.2781 48.9049 31.8177C47.2718 33.148 45.4335 33.148 43.8111 31.8155C43.3579 31.444 42.8941 31.0831 42.4772 30.6731C41.9856 30.1905 41.5709 30.1691 41.0408 30.6453C40.1109 31.4803 39.1127 32.2405 38.1764 33.0711C37.9328 33.2868 37.8109 33.6434 37.6335 33.9339C37.9712 34.0769 38.3068 34.3396 38.6488 34.346C40.671 34.3844 42.6953 34.3652 44.7174 34.3652V34.3631Z" fill="black"/>
<path d="M44.7453 55.3073C42.6398 55.3073 40.5343 55.3159 38.4309 55.3052C35.9321 55.2924 34.4059 53.7527 34.3995 51.2543C34.3952 48.6683 34.3909 46.0802 34.3995 43.4942C34.408 41.141 35.9449 39.5522 38.2813 39.5415C42.5971 39.5181 46.915 39.5181 51.2307 39.5415C53.5094 39.5544 55.0549 41.0748 55.0869 43.349C55.1254 46.0695 55.1254 48.79 55.0869 51.5106C55.0527 53.7826 53.5009 55.2838 51.2179 55.3052C49.059 55.3265 46.9022 55.3095 44.7432 55.3116L44.7453 55.3073ZM49.7558 52.1063C50.1876 52.1063 50.5061 52.1063 50.8246 52.1063C51.8207 52.0978 51.8998 52.0231 51.8998 50.9938C51.9041 48.5658 51.8848 46.1357 51.9105 43.7077C51.9191 42.9881 51.6583 42.719 50.9272 42.7233C46.8209 42.7468 42.7146 42.7468 38.6105 42.7233C37.8495 42.719 37.5716 42.9838 37.5845 43.7505C37.6187 45.9649 37.5973 48.1793 37.5973 50.3959C37.5973 52.2067 37.6208 52.2281 39.4335 52.0957C39.5083 52.0893 39.581 52.0529 39.7349 52.006C39.7969 50.319 39.5083 48.5359 40.8571 47.1159C42.223 45.6766 43.9608 45.7748 45.6987 45.8197C46.7205 45.8453 47.614 46.2062 48.392 46.881C49.9952 48.2754 49.758 50.1759 49.7558 52.1063ZM46.5516 52.0764C46.5516 51.3184 46.573 50.6308 46.5452 49.9453C46.5195 49.3388 46.1348 48.963 45.5598 49.0377C44.6898 49.1531 43.482 48.4548 43.0481 49.7189C42.8087 50.4172 43.0054 51.2671 43.0054 52.0764H46.5537H46.5516Z" fill="black"/>
<path d="M39.1208 18.828C34.4566 18.828 29.7924 18.8323 25.1282 18.8259C23.9034 18.8259 23.2172 18.2664 23.1809 17.2927C23.151 16.4577 23.6875 15.7915 24.5147 15.6719C24.8289 15.627 25.1517 15.6292 25.4724 15.6292C34.5891 15.6292 43.7038 15.6292 52.8205 15.6292C53.139 15.6292 53.4639 15.6292 53.776 15.6761C54.5391 15.7936 55.0586 16.3958 55.0864 17.1581C55.1163 17.9653 54.6204 18.6209 53.8295 18.7661C53.4917 18.828 53.1412 18.8259 52.7949 18.8259C48.2376 18.8302 43.6781 18.828 39.1208 18.8259V18.828Z" fill="#FD6F00"/>
<path d="M16.7773 17.2243C16.7773 16.336 17.4528 15.6527 18.3378 15.6441C19.2142 15.6356 19.9324 16.321 19.9581 17.1838C19.9837 18.0678 19.2334 18.8216 18.3378 18.8109C17.4635 18.8003 16.7773 18.1041 16.7773 17.2222V17.2243Z" fill="#FD6F00"/>
<path d="M53.0575 4.15131C53.4294 4.15131 53.8056 4.12355 54.1754 4.15771C54.9684 4.22818 55.5563 4.84105 55.6183 5.61834C55.676 6.35292 55.2164 7.12808 54.464 7.2199C53.4978 7.33522 52.4974 7.34162 51.5312 7.22631C50.7339 7.13021 50.3064 6.37214 50.3791 5.55855C50.4475 4.78126 51.0332 4.2111 51.8583 4.15344C52.2559 4.12568 52.6577 4.14917 53.0575 4.14917V4.15344V4.15131Z" fill="#FD6F00"/>
<path d="M24.2088 35.0699C23.5974 35.0699 22.9861 35.0955 22.3769 35.0635C21.4769 35.0144 20.8122 34.314 20.8164 33.4662C20.8207 32.6184 21.4855 31.9095 22.3897 31.8839C23.6359 31.8497 24.8864 31.8476 26.1326 31.8839C27.0496 31.9116 27.6845 32.6056 27.6802 33.4769C27.6759 34.346 27.0368 35.0165 26.1198 35.0614C25.4849 35.0934 24.8458 35.0678 24.2088 35.0678V35.0699Z" fill="black"/>
<path d="M24.3158 42.6037C24.8737 42.6037 25.4316 42.5909 25.9895 42.6059C27.0156 42.6358 27.6932 43.2913 27.6825 44.2224C27.6718 45.1193 27.007 45.777 26.028 45.7962C24.8331 45.8197 23.6382 45.8218 22.4433 45.7962C21.4942 45.7727 20.8038 45.0595 20.8166 44.184C20.8294 43.3063 21.522 42.6507 22.4839 42.6059C22.5373 42.6037 22.5908 42.6059 22.6442 42.6059C23.2021 42.6059 23.76 42.6059 24.3179 42.6059L24.3158 42.6037Z" fill="black"/>
<path d="M24.307 26.5261C24.9205 26.5261 25.534 26.4984 26.1453 26.5325C27.0474 26.5838 27.6587 27.2159 27.6823 28.0594C27.7058 28.9071 27.1372 29.6204 26.2394 29.6673C24.9376 29.7335 23.6273 29.7335 22.3255 29.6759C21.3935 29.6353 20.7757 28.89 20.8185 28.038C20.8591 27.2031 21.4854 26.5987 22.3875 26.5261C22.4409 26.5219 22.4944 26.5197 22.5478 26.5197C23.1335 26.5197 23.7213 26.5197 24.307 26.5197C24.307 26.5219 24.307 26.524 24.307 26.5261Z" fill="black"/>
<path d="M24.2111 40.4277C23.5977 40.4277 22.982 40.4662 22.3728 40.4192C21.428 40.3445 20.8017 39.6718 20.8167 38.8155C20.8295 37.9549 21.4793 37.2887 22.4199 37.2631C23.6447 37.2289 24.8738 37.2289 26.0986 37.2631C27.0434 37.2887 27.6762 37.9507 27.6847 38.824C27.6933 39.6718 27.114 40.2975 26.2098 40.4192C26.1307 40.4299 26.0516 40.4427 25.9704 40.4427C25.3847 40.4427 24.7968 40.4427 24.2111 40.4427C24.2111 40.4384 24.2111 40.432 24.2111 40.4277Z" fill="black"/>
<path d="M24.2867 47.9849C24.9002 47.9849 25.5137 47.9593 26.125 47.9913C27.0314 48.0404 27.6491 48.6576 27.6812 49.4989C27.7175 50.3766 27.1254 51.092 26.1806 51.1368C24.9045 51.1966 23.6219 51.1966 22.3458 51.1389C21.4074 51.0962 20.7875 50.3723 20.8174 49.5182C20.8474 48.6576 21.4951 48.0298 22.4463 47.9892C23.0576 47.9614 23.6732 47.9849 24.2846 47.9871L24.2867 47.9849Z" fill="black"/>
</g>
<defs>
<clipPath id="clip0_1210_2793">
<rect width="72" height="82" fill="white"/>
</clipPath>
</defs>
</svg>
